<svg width="400" height="150" viewBox="0 0 400 150" xmlns="http://www.w3.org/2000/svg" fill="none">
  <!-- Ícone de CPU minimalista: quadrado sem preenchimento com linhas -->
  <rect x="20" y="30" width="100" height="100" rx="15" ry="15" stroke="#1B4F8B" stroke-width="5" fill="none"/>

  <!-- Borda branca grossa ao redor do núcleo interno -->
  <rect x="40" y="50" width="60" height="60" rx="12" ry="12" fill="white"/>

  <!-- Núcleo interno: quadrado azul escuro com borda azul escuro -->
  <rect x="45" y="55" width="50" height="50" rx="8" ry="8" fill="#1B4F8B" stroke="#1B4F8B" stroke-width="3"/>

  <!-- Pinos simples: linhas pequenas ao redor -->
  <!-- Top -->
  <line x1="40" y1="20" x2="40" y2="30" stroke="#1B4F8B" stroke-width="4" stroke-linecap="round"/>
  <line x1="65" y1="20" x2="65" y2="30" stroke="#1B4F8B" stroke-width="4" stroke-linecap="round"/>
  <line x1="90" y1="20" x2="90" y2="30" stroke="#1B4F8B" stroke-width="4" stroke-linecap="round"/>
  <!-- Bottom -->
  <line x1="40" y1="130" x2="40" y2="140" stroke="#1B4F8B" stroke-width="4" stroke-linecap="round"/>
  <line x1="65" y1="130" x2="65" y2="140" stroke="#1B4F8B" stroke-width="4" stroke-linecap="round"/>
  <line x1="90" y1="130" x2="90" y2="140" stroke="#1B4F8B" stroke-width="4" stroke-linecap="round"/>
  <!-- Left -->
  <line x1="10" y1="50" x2="20" y2="50" stroke="#1B4F8B" stroke-width="4" stroke-linecap="round"/>
  <line x1="10" y1="75" x2="20" y2="75" stroke="#1B4F8B" stroke-width="4" stroke-linecap="round"/>
  <line x1="10" y1="100" x2="20" y2="100" stroke="#1B4F8B" stroke-width="4" stroke-linecap="round"/>
  <!-- Right -->
  <line x1="120" y1="50" x2="130" y2="50" stroke="#1B4F8B" stroke-width="4" stroke-linecap="round"/>
  <line x1="120" y1="75" x2="130" y2="75" stroke="#1B4F8B" stroke-width="4" stroke-linecap="round"/>
  <line x1="120" y1="100" x2="130" y2="100" stroke="#1B4F8B" stroke-width="4" stroke-linecap="round"/>

  <!-- Texto HighEnd technology em branco -->
  <text x="160" y="75" font-family="Segoe UI, Verdana, sans-serif" font-size="48" fill="white" font-weight="700">HighEnd</text>
  <text x="160" y="115" font-family="Segoe UI, Verdana, sans-serif" font-size="24" fill="white" font-weight="400" letter-spacing="1">technology</text>
</svg>
